<svg width="184" height="33" viewBox="0 0 184 33" fill="none" xmlns="http://www.w3.org/2000/svg">
<g clip-path="url(#clip0_1_517)">
<g clip-path="url(#clip1_1_517)">
<path d="M64.4802 23.7079C63.0127 23.7079 61.7192 23.3959 60.5992 22.7719C59.4794 22.1479 58.5912 21.2779 57.9347 20.1623C57.2976 19.0466 56.979 17.7701 56.979 16.333C56.979 14.8958 57.2976 13.6193 57.9347 12.5037C58.5912 11.388 59.4794 10.5181 60.5992 9.89405C61.7192 9.27003 63.0127 8.95801 64.4802 8.95801C66.3145 8.95801 67.8591 9.43076 69.1141 10.3763C70.3692 11.3029 71.1704 12.5887 71.518 14.2339H67.6082C67.415 13.5531 67.0289 13.0236 66.4496 12.6455C65.8897 12.2484 65.2236 12.0498 64.4512 12.0498C63.4279 12.0498 62.5591 12.428 61.8447 13.1844C61.1303 13.9408 60.7731 14.9903 60.7731 16.333C60.7731 17.6756 61.1303 18.7251 61.8447 19.4815C62.5591 20.2379 63.4279 20.6161 64.4512 20.6161C65.2236 20.6161 65.8897 20.427 66.4496 20.0488C67.0289 19.6706 67.415 19.1317 67.6082 18.432H71.518C71.1704 20.0204 70.3692 21.2968 69.1141 22.2613C67.8591 23.2257 66.3145 23.7079 64.4802 23.7079Z" fill="white"/>
<path d="M81.1221 23.7079C79.7319 23.7079 78.4768 23.3959 77.3569 22.7719C76.2564 22.1479 75.3779 21.2874 74.7214 20.1906C74.0842 19.0749 73.7656 17.789 73.7656 16.333C73.7656 14.8769 74.0939 13.6004 74.7503 12.5037C75.4068 11.388 76.2853 10.5181 77.3859 9.89405C78.5058 9.27003 79.7608 8.95801 81.151 8.95801C82.5219 8.95801 83.7576 9.27003 84.8582 9.89405C85.978 10.5181 86.8565 11.388 87.4938 12.5037C88.1502 13.6004 88.4785 14.8769 88.4785 16.333C88.4785 17.789 88.1502 19.0749 87.4938 20.1906C86.8565 21.2874 85.978 22.1479 84.8582 22.7719C83.7383 23.3959 82.4929 23.7079 81.1221 23.7079ZM81.1221 20.5593C82.0875 20.5593 82.9274 20.2095 83.6418 19.5098C84.3561 18.7913 84.7133 17.7323 84.7133 16.333C84.7133 14.9336 84.3561 13.8841 83.6418 13.1844C82.9274 12.4658 82.0971 12.1065 81.151 12.1065C80.1663 12.1065 79.3167 12.4658 78.6024 13.1844C77.9073 13.8841 77.5597 14.9336 77.5597 16.333C77.5597 17.7323 77.9073 18.7913 78.6024 19.5098C79.3167 20.2095 80.1567 20.5593 81.1221 20.5593Z" fill="white"/>
<path d="M91.2139 23.3675V9.29838H94.4862L94.8048 11.1989C95.2689 10.5181 95.8768 9.97915 96.6302 9.58204C97.4019 9.16602 98.2907 8.95801 99.294 8.95801C101.515 8.95801 103.088 9.7995 104.015 11.4825C104.537 10.7072 105.231 10.0926 106.1 9.63877C106.989 9.18492 107.954 8.95801 108.997 8.95801C110.87 8.95801 112.308 9.5064 113.312 10.6032C114.316 11.7 114.818 13.3073 114.818 15.4252V23.3675H111.111V15.7657C111.111 14.5554 110.87 13.6288 110.387 12.9859C109.924 12.3429 109.2 12.0214 108.215 12.0214C107.211 12.0214 106.4 12.3807 105.782 13.0993C105.183 13.8179 104.885 14.8202 104.885 16.106V23.3675H101.177V15.7657C101.177 14.5554 100.935 13.6288 100.453 12.9859C99.9705 12.3429 99.2272 12.0214 98.223 12.0214C97.238 12.0214 96.437 12.3807 95.8191 13.0993C95.2204 13.8179 94.9211 14.8202 94.9211 16.106V23.3675H91.2139Z" fill="white"/>
<path d="M117.758 29.6079V9.29838H121.06L121.466 11.3123C121.929 10.6883 122.538 10.1399 123.29 9.66714C124.063 9.19438 125.057 8.95801 126.274 8.95801C127.625 8.95801 128.832 9.27948 129.894 9.92242C130.956 10.5654 131.795 11.4447 132.413 12.5604C133.031 13.6761 133.341 14.9431 133.341 16.3613C133.341 17.7796 133.031 19.0466 132.413 20.1623C131.795 21.259 130.956 22.1289 129.894 22.7719C128.832 23.3959 127.625 23.7079 126.274 23.7079C125.192 23.7079 124.246 23.5094 123.435 23.1123C122.625 22.7151 121.967 22.1573 121.466 21.4387V29.6079H117.758ZM125.492 20.531C126.669 20.531 127.645 20.1433 128.417 19.368C129.189 18.5928 129.576 17.5905 129.576 16.3613C129.576 15.1322 129.189 14.1205 128.417 13.3262C127.645 12.532 126.669 12.1349 125.492 12.1349C124.294 12.1349 123.309 12.532 122.538 13.3262C121.784 14.1016 121.408 15.1038 121.408 16.333C121.408 17.5621 121.784 18.5738 122.538 19.368C123.309 20.1433 124.294 20.531 125.492 20.531Z" fill="white"/>
<path d="M141.025 23.7079C139.79 23.7079 138.775 23.5188 137.984 23.1406C137.193 22.7435 136.604 22.2234 136.218 21.5805C135.831 20.9376 135.638 20.2284 135.638 19.4531C135.638 18.1483 136.159 17.0893 137.202 16.2762C138.244 15.4631 139.809 15.0565 141.894 15.0565H145.543V14.7162C145.543 13.7517 145.263 13.0426 144.704 12.5887C144.143 12.1349 143.449 11.908 142.618 11.908C141.865 11.908 141.209 12.0876 140.648 12.4469C140.089 12.7873 139.741 13.2979 139.606 13.9787H135.986C136.082 12.9575 136.43 12.0687 137.029 11.3123C137.647 10.5559 138.438 9.97915 139.403 9.58204C140.369 9.16602 141.45 8.95801 142.647 8.95801C144.694 8.95801 146.306 9.45913 147.484 10.4614C148.662 11.4636 149.251 12.8819 149.251 14.7162V23.3675H146.093L145.746 21.0983C145.322 21.8547 144.723 22.4788 143.95 22.9704C143.198 23.4621 142.222 23.7079 141.025 23.7079ZM141.865 20.8713C142.927 20.8713 143.748 20.531 144.326 19.8503C144.925 19.1695 145.302 18.328 145.456 17.3257H142.3C141.315 17.3257 140.61 17.5054 140.185 17.8647C139.76 18.2051 139.548 18.6305 139.548 19.1411C139.548 19.6895 139.76 20.115 140.185 20.4175C140.61 20.7201 141.17 20.8713 141.865 20.8713Z" fill="white"/>
<path d="M152.209 23.3675V9.29838H155.482L155.771 11.6811C156.215 10.849 156.852 10.1872 157.682 9.6955C158.532 9.20383 159.527 8.95801 160.666 8.95801C162.442 8.95801 163.823 9.5064 164.807 10.6032C165.792 11.7 166.285 13.3073 166.285 15.4252V23.3675H162.577V15.7657C162.577 14.5554 162.326 13.6288 161.824 12.9859C161.322 12.3429 160.54 12.0214 159.478 12.0214C158.436 12.0214 157.576 12.3807 156.901 13.0993C156.244 13.8179 155.916 14.8202 155.916 16.106V23.3675H152.209Z" fill="white"/>
<path d="M170.565 29.6078L173.895 22.4314H173.027L167.437 9.29834H171.463L175.488 19.1978L179.688 9.29834H183.627L174.504 29.6078H170.565Z" fill="white"/>
<path d="M14.7256 27.1621C13.757 28.1108 12.1862 28.1094 11.2193 27.1592L1.96328 18.0628C0.998698 17.1149 1.00004 15.581 1.96629 14.6347L11.2223 5.5695C12.1885 4.62317 13.7547 4.62185 14.7226 5.56656L24.0104 14.6317C24.9806 15.5788 24.982 17.1171 24.0134 18.0658L14.7256 27.1621Z" fill="#0328EE"/>
<path d="M27.5202 27.1586C26.5533 28.1089 24.9825 28.1102 24.0138 27.1616L14.7261 18.0653C13.7574 17.1166 13.7588 15.5782 14.7291 14.6312L24.0169 5.56607C24.9847 4.62136 26.5509 4.62268 27.5172 5.56901L36.7732 14.6342C37.7394 15.5805 37.7408 17.1144 36.7762 18.0623L27.5202 27.1586Z" fill="white"/>
<path d="M37.0042 27.1603C36.0365 28.1096 34.4659 28.1096 33.4982 27.1603L24.2246 18.0637C23.258 17.1154 23.2592 15.579 24.2277 14.6323L33.5012 5.56692C34.4682 4.62157 36.0342 4.62157 37.0013 5.56692L46.2747 14.6323C47.2431 15.579 47.2445 17.1154 46.2777 18.0637L37.0042 27.1603Z" fill="#0328EE"/>
</g>
</g>
<defs>
<clipPath id="clip0_1_517">
<rect width="184" height="33" fill="white"/>
</clipPath>
<clipPath id="clip1_1_517">
<rect width="184" height="26" fill="white" transform="translate(0.217773 3.78125)"/>
</clipPath>
</defs>
</svg>
