<svg width="184" height="33" viewBox="0 0 184 33" fill="none" xmlns="http://www.w3.org/2000/svg">
<g clip-path="url(#clip0_1_569)">
<path d="M40.9917 14.4083C40.9917 12.5083 41.4159 10.8111 42.2645 9.31686C43.1315 7.80418 44.303 6.63278 45.7787 5.80265C47.273 4.95407 48.9425 4.52979 50.7872 4.52979C52.9455 4.52979 54.8364 5.08321 56.4597 6.19005C58.0831 7.29689 59.2176 8.82802 59.8633 10.7834H55.4083C54.9655 9.86107 54.3383 9.16929 53.5266 8.70811C52.7334 8.24693 51.811 8.01632 50.7595 8.01632C49.6342 8.01632 48.6289 8.28382 47.7434 8.81879C46.8764 9.33532 46.1938 10.0732 45.6957 11.0325C45.2161 11.9917 44.9763 13.117 44.9763 14.4083C44.9763 15.6812 45.2161 16.8065 45.6957 17.7842C46.1938 18.7435 46.8764 19.4906 47.7434 20.0256C48.6289 20.5421 49.6342 20.8003 50.7595 20.8003C51.811 20.8003 52.7334 20.5698 53.5266 20.1086C54.3383 19.6289 54.9655 18.9279 55.4083 18.0056H59.8633C59.2176 19.9794 58.0831 21.5198 56.4597 22.6266C54.8548 23.715 52.964 24.2592 50.7872 24.2592C48.9425 24.2592 47.273 23.8442 45.7787 23.014C44.303 22.1654 43.1315 20.994 42.2645 19.4998C41.4159 18.0056 40.9917 16.3084 40.9917 14.4083Z" fill="white"/>
<path d="M69.9792 24.3424C68.5034 24.3424 67.1752 24.0196 65.9946 23.3739C64.8139 22.7098 63.8823 21.7783 63.1998 20.5792C62.5357 19.3801 62.2036 17.9965 62.2036 16.4285C62.2036 14.8605 62.5449 13.4769 63.2275 12.2779C63.9285 11.0788 64.8785 10.1565 66.0776 9.51081C67.2767 8.8467 68.6141 8.51465 70.0899 8.51465C71.5657 8.51465 72.9031 8.8467 74.1022 9.51081C75.3013 10.1565 76.2421 11.0788 76.9246 12.2779C77.6256 13.4769 77.9761 14.8605 77.9761 16.4285C77.9761 17.9965 77.6164 19.3801 76.8969 20.5792C76.1959 21.7783 75.2367 22.7098 74.0192 23.3739C72.8201 24.0196 71.4734 24.3424 69.9792 24.3424ZM69.9792 20.9666C70.6802 20.9666 71.3351 20.8005 71.9438 20.4685C72.571 20.118 73.0691 19.6015 73.4381 18.9189C73.807 18.2364 73.9915 17.4062 73.9915 16.4285C73.9915 14.9712 73.6041 13.8551 72.8293 13.0803C72.073 12.2871 71.1414 11.8905 70.0345 11.8905C68.9277 11.8905 67.9961 12.2871 67.2398 13.0803C66.5019 13.8551 66.1329 14.9712 66.1329 16.4285C66.1329 17.8859 66.4926 19.0112 67.2121 19.8044C67.95 20.5792 68.8724 20.9666 69.9792 20.9666Z" fill="white"/>
<path d="M99.855 8.54199C101.737 8.54199 103.25 9.12308 104.393 10.2853C105.555 11.429 106.137 13.0339 106.137 15.1V24.0931H102.263V15.6258C102.263 14.4267 101.958 13.5135 101.349 12.8863C100.74 12.2407 99.9104 11.9178 98.8589 11.9178C97.8074 11.9178 96.968 12.2407 96.3408 12.8863C95.7321 13.5135 95.4277 14.4267 95.4277 15.6258V24.0931H91.5537V15.6258C91.5537 14.4267 91.2494 13.5135 90.6406 12.8863C90.0318 12.2407 89.2017 11.9178 88.1502 11.9178C87.0803 11.9178 86.2317 12.2407 85.6045 12.8863C84.9957 13.5135 84.6913 14.4267 84.6913 15.6258V24.0931H80.8174V8.76336H84.6913V10.6173C85.1894 9.97166 85.8259 9.46436 86.6006 9.09541C87.3939 8.72647 88.2609 8.54199 89.2017 8.54199C90.4008 8.54199 91.4707 8.80026 92.4116 9.31678C93.3524 9.81486 94.081 10.5343 94.5976 11.4751C95.0956 10.5897 95.8151 9.87943 96.7559 9.34445C97.7152 8.80948 98.7482 8.54199 99.855 8.54199Z" fill="white"/>
<path d="M113.687 10.9774C114.185 10.2764 114.867 9.69528 115.734 9.2341C116.62 8.75447 117.625 8.51465 118.75 8.51465C120.06 8.51465 121.241 8.83748 122.292 9.48314C123.362 10.1288 124.202 11.0511 124.81 12.2502C125.438 13.4308 125.751 14.8052 125.751 16.3732C125.751 17.9412 125.438 19.334 124.81 20.5515C124.202 21.7506 123.362 22.6822 122.292 23.3463C121.241 24.0104 120.06 24.3424 118.75 24.3424C117.625 24.3424 116.629 24.1118 115.762 23.6507C114.913 23.1895 114.222 22.6084 113.687 21.9074V31.3985H109.813V8.76369H113.687V10.9774ZM121.794 16.3732C121.794 15.4508 121.601 14.6576 121.213 13.9935C120.844 13.3109 120.346 12.7944 119.719 12.4439C119.11 12.0934 118.446 11.9181 117.727 11.9181C117.026 11.9181 116.362 12.1026 115.734 12.4716C115.126 12.8221 114.627 13.3386 114.24 14.0211C113.871 14.7037 113.687 15.5062 113.687 16.4285C113.687 17.3509 113.871 18.1533 114.24 18.8359C114.627 19.5185 115.126 20.0442 115.734 20.4132C116.362 20.7636 117.026 20.9389 117.727 20.9389C118.446 20.9389 119.11 20.7544 119.719 20.3855C120.346 20.0165 120.844 19.4908 121.213 18.8082C121.601 18.1257 121.794 17.314 121.794 16.3732Z" fill="white"/>
<path d="M127.57 16.3732C127.57 14.8236 127.875 13.4493 128.483 12.2502C129.11 11.0511 129.95 10.1288 131.001 9.48314C132.071 8.83748 133.261 8.51465 134.571 8.51465C135.715 8.51465 136.711 8.74524 137.559 9.20643C138.426 9.66761 139.118 10.2487 139.635 10.9497V8.76369H143.536V24.0934H139.635V21.852C139.137 22.5715 138.445 23.171 137.559 23.6507C136.692 24.1118 135.687 24.3424 134.543 24.3424C133.252 24.3424 132.071 24.0104 131.001 23.3463C129.95 22.6822 129.11 21.7506 128.483 20.5515C127.875 19.334 127.57 17.9412 127.57 16.3732ZM139.635 16.4285C139.635 15.4877 139.45 14.6852 139.081 14.0211C138.712 13.3386 138.214 12.8221 137.587 12.4716C136.96 12.1026 136.287 11.9181 135.567 11.9181C134.848 11.9181 134.184 12.0934 133.575 12.4439C132.966 12.7944 132.468 13.3109 132.081 13.9935C131.712 14.6576 131.527 15.4508 131.527 16.3732C131.527 17.2955 131.712 18.1072 132.081 18.8082C132.468 19.4908 132.966 20.0165 133.575 20.3855C134.202 20.7544 134.866 20.9389 135.567 20.9389C136.287 20.9389 136.96 20.7636 137.587 20.4132C138.214 20.0442 138.712 19.5277 139.081 18.8636C139.45 18.181 139.635 17.3693 139.635 16.4285Z" fill="white"/>
<path d="M155.815 8.54199C157.641 8.54199 159.117 9.12308 160.242 10.2853C161.368 11.429 161.93 13.0339 161.93 15.1V24.0931H158.056V15.6258C158.056 14.4082 157.752 13.4766 157.143 12.831C156.534 12.1669 155.704 11.8348 154.653 11.8348C153.583 11.8348 152.734 12.1669 152.107 12.831C151.498 13.4766 151.194 14.4082 151.194 15.6258V24.0931H147.32V8.76336H151.194V10.6727C151.71 10.0086 152.365 9.49203 153.158 9.12308C153.97 8.73569 154.856 8.54199 155.815 8.54199Z" fill="white"/>
<path d="M180.28 8.76367L170.789 31.3432H166.666L169.986 23.706L163.843 8.76367H168.187L172.144 19.4723L176.157 8.76367H180.28Z" fill="white"/>
<path d="M5.59846 32.4241H2.83691V13.0859H13.1958V24.8268C13.1958 29.0221 9.79621 32.4241 5.59846 32.4241Z" fill="#0328EE"/>
<path d="M27.008 13.0858C27.008 6.41224 21.5982 1 14.9222 1C14.3359 1 13.7595 1.04434 13.1953 1.12564V13.0858H27.008Z" fill="#0328EE"/>
<path d="M23.0949 25.826C25.7441 24.745 27.0154 21.7212 25.9345 19.072C24.8535 16.4228 21.8296 15.1515 19.1804 16.2324C16.5312 17.3134 15.2599 20.3373 16.3409 22.9865C17.4219 25.6357 20.4458 26.907 23.0949 25.826Z" fill="white"/>
</g>
<defs>
<clipPath id="clip0_1_569">
<rect width="179" height="32" fill="white" transform="translate(2 1)"/>
</clipPath>
</defs>
</svg>
