<svg width="185" height="33" viewBox="0 0 185 33" fill="none" xmlns="http://www.w3.org/2000/svg">
<g clip-path="url(#clip0_1_557)">
<path d="M43.0483 14.0431C43.0483 12.143 43.4726 10.4459 44.3211 8.95164C45.1882 7.43896 46.3596 6.26755 47.8353 5.43742C49.3296 4.58884 50.9991 4.16455 52.8438 4.16455C55.0021 4.16455 56.893 4.71797 58.5164 5.82481C60.1397 6.93166 61.2742 8.46278 61.9199 10.4182H57.4649C57.0221 9.49584 56.3949 8.80406 55.5832 8.34288C54.79 7.88169 53.8676 7.6511 52.8161 7.6511C51.6908 7.6511 50.6855 7.91859 49.8 8.45356C48.933 8.97009 48.2504 9.70798 47.7523 10.6672C47.2727 11.6265 47.0329 12.7518 47.0329 14.0431C47.0329 15.3159 47.2727 16.4412 47.7523 17.4189C48.2504 18.3782 48.933 19.1253 49.8 19.6603C50.6855 20.1768 51.6908 20.4351 52.8161 20.4351C53.8676 20.4351 54.79 20.2045 55.5832 19.7433C56.3949 19.2637 57.0221 18.5627 57.4649 17.6403H61.9199C61.2742 19.6142 60.1397 21.1545 58.5164 22.2614C56.9114 23.3498 55.0206 23.894 52.8438 23.894C50.9991 23.894 49.3296 23.4789 47.8353 22.6488C46.3596 21.8002 45.1882 20.6288 44.3211 19.1345C43.4726 17.6403 43.0483 15.9432 43.0483 14.0431Z" fill="white"/>
<path d="M72.0359 23.9773C70.5601 23.9773 69.2319 23.6544 68.0513 23.0088C66.8706 22.3447 65.9391 21.4131 65.2565 20.214C64.5924 19.0149 64.2603 17.6314 64.2603 16.0634C64.2603 14.4953 64.6016 13.1118 65.2842 11.9127C65.9852 10.7136 66.9352 9.79122 68.1343 9.14557C69.3334 8.48146 70.6708 8.14941 72.1466 8.14941C73.6224 8.14941 74.9598 8.48146 76.1589 9.14557C77.358 9.79122 78.2988 10.7136 78.9813 11.9127C79.6823 13.1118 80.0328 14.4953 80.0328 16.0634C80.0328 17.6314 79.6731 19.0149 78.9537 20.214C78.2527 21.4131 77.2934 22.3447 76.0759 23.0088C74.8768 23.6544 73.5301 23.9773 72.0359 23.9773ZM72.0359 20.6014C72.7369 20.6014 73.3918 20.4354 74.0005 20.1033C74.6278 19.7528 75.1258 19.2363 75.4948 18.5538C75.8637 17.8712 76.0482 17.0411 76.0482 16.0634C76.0482 14.606 75.6608 13.49 74.886 12.7152C74.1297 11.9219 73.1981 11.5253 72.0912 11.5253C70.9844 11.5253 70.0528 11.9219 69.2965 12.7152C68.5586 13.49 68.1896 14.606 68.1896 16.0634C68.1896 17.5207 68.5494 18.646 69.2688 19.4392C70.0067 20.214 70.9291 20.6014 72.0359 20.6014Z" fill="white"/>
<path d="M101.912 8.17676C103.794 8.17676 105.307 8.75785 106.45 9.92003C107.612 11.0638 108.194 12.6686 108.194 14.7348V23.7278H104.32V15.2605C104.32 14.0614 104.015 13.1483 103.406 12.5211C102.798 11.8754 101.968 11.5526 100.916 11.5526C99.8645 11.5526 99.0251 11.8754 98.3979 12.5211C97.7892 13.1483 97.4848 14.0614 97.4848 15.2605V23.7278H93.6109V15.2605C93.6109 14.0614 93.3065 13.1483 92.6977 12.5211C92.089 11.8754 91.2588 11.5526 90.2073 11.5526C89.1374 11.5526 88.2888 11.8754 87.6616 12.5211C87.0528 13.1483 86.7484 14.0614 86.7484 15.2605V23.7278H82.8745V8.39813H86.7484V10.2521C87.2465 9.60643 87.883 9.09913 88.6577 8.73018C89.451 8.36123 90.318 8.17676 91.2588 8.17676C92.4579 8.17676 93.5278 8.43502 94.4687 8.95155C95.4095 9.44963 96.1381 10.1691 96.6547 11.1099C97.1527 10.2244 97.8722 9.51419 98.813 8.97922C99.7723 8.44425 100.805 8.17676 101.912 8.17676Z" fill="white"/>
<path d="M115.744 10.6121C116.242 9.91113 116.924 9.33004 117.791 8.86886C118.677 8.38923 119.682 8.14941 120.807 8.14941C122.117 8.14941 123.298 8.47224 124.349 9.1179C125.419 9.76355 126.259 10.6859 126.867 11.885C127.495 13.0657 127.808 14.44 127.808 16.008C127.808 17.576 127.495 18.9688 126.867 20.1863C126.259 21.3854 125.419 22.317 124.349 22.9811C123.298 23.6452 122.117 23.9773 120.807 23.9773C119.682 23.9773 118.686 23.7467 117.819 23.2855C116.97 22.8243 116.279 22.2432 115.744 21.5422V31.0334H111.87V8.39845H115.744V10.6121ZM123.851 16.008C123.851 15.0857 123.658 14.2924 123.27 13.6283C122.901 12.9458 122.403 12.4292 121.776 12.0787C121.167 11.7282 120.503 11.5529 119.784 11.5529C119.083 11.5529 118.419 11.7374 117.791 12.1064C117.183 12.4569 116.684 12.9734 116.297 13.656C115.928 14.3385 115.744 15.141 115.744 16.0634C115.744 16.9857 115.928 17.7882 116.297 18.4707C116.684 19.1533 117.183 19.679 117.791 20.048C118.419 20.3985 119.083 20.5737 119.784 20.5737C120.503 20.5737 121.167 20.3893 121.776 20.0203C122.403 19.6514 122.901 19.1256 123.27 18.4431C123.658 17.7605 123.851 16.9488 123.851 16.008Z" fill="white"/>
<path d="M129.627 16.008C129.627 14.4584 129.932 13.0841 130.54 11.885C131.167 10.6859 132.007 9.76355 133.058 9.1179C134.128 8.47224 135.318 8.14941 136.628 8.14941C137.772 8.14941 138.768 8.38 139.616 8.84118C140.483 9.30237 141.175 9.88346 141.692 10.5845V8.39845H145.593V23.7282H141.692V21.4869C141.194 22.2063 140.502 22.8059 139.616 23.2855C138.749 23.7467 137.744 23.9773 136.6 23.9773C135.309 23.9773 134.128 23.6452 133.058 22.9811C132.007 22.317 131.167 21.3854 130.54 20.1863C129.932 18.9688 129.627 17.576 129.627 16.008ZM141.692 16.0634C141.692 15.1225 141.507 14.3201 141.138 13.656C140.769 12.9734 140.271 12.4569 139.644 12.1064C139.017 11.7374 138.344 11.5529 137.624 11.5529C136.905 11.5529 136.241 11.7282 135.632 12.0787C135.023 12.4292 134.525 12.9458 134.138 13.6283C133.769 14.2924 133.584 15.0857 133.584 16.008C133.584 16.9304 133.769 17.7421 134.138 18.4431C134.525 19.1256 135.023 19.6514 135.632 20.0203C136.259 20.3893 136.923 20.5737 137.624 20.5737C138.344 20.5737 139.017 20.3985 139.644 20.048C140.271 19.679 140.769 19.1625 141.138 18.4984C141.507 17.8159 141.692 17.0042 141.692 16.0634Z" fill="white"/>
<path d="M157.872 8.17676C159.698 8.17676 161.174 8.75785 162.299 9.92003C163.425 11.0638 163.987 12.6686 163.987 14.7348V23.7278H160.113V15.2605C160.113 14.043 159.809 13.1114 159.2 12.4658C158.591 11.8017 157.761 11.4696 156.71 11.4696C155.64 11.4696 154.791 11.8017 154.164 12.4658C153.555 13.1114 153.251 14.043 153.251 15.2605V23.7278H149.377V8.39813H153.251V10.3074C153.767 9.64332 154.422 9.1268 155.215 8.75785C156.027 8.37046 156.913 8.17676 157.872 8.17676Z" fill="white"/>
<path d="M182.337 8.39844L172.846 30.9779H168.723L172.043 23.3407L165.9 8.39844H170.245L174.201 19.1071L178.214 8.39844H182.337Z" fill="white"/>
<path d="M14.0032 30.8286C8.08841 30.8286 3.3125 26.016 3.3125 20.1379C3.3125 14.2599 8.08841 9.44727 14.0032 9.44727C19.8812 9.44727 24.6939 14.2232 24.6939 20.1379C24.6571 26.016 19.8812 30.8286 14.0032 30.8286Z" fill="#0328EE"/>
<path d="M29.805 2.61475H15.7246C14.7737 2.61475 14.0029 3.38559 14.0029 4.33648V18.4169C14.0029 19.3678 14.7737 20.1386 15.7246 20.1386H29.805C30.7559 20.1386 31.5268 19.3678 31.5268 18.4169V4.33648C31.5268 3.38559 30.7559 2.61475 29.805 2.61475Z" fill="white"/>
</g>
<defs>
<clipPath id="clip0_1_557">
<rect width="180" height="29" fill="white" transform="translate(2.5 2.53125)"/>
</clipPath>
</defs>
</svg>
