<svg width="12" height="12" viewBox="0 0 12 12" fill="none" xmlns="http://www.w3.org/2000/svg">
<path d="M2.26666 0.866586C2.14725 0.866586 2.02771 0.912072 1.93671 1.00331L1.00338 1.93664C0.820915 2.11911 0.820915 2.41453 1.00338 2.59653L4.40677 5.99992L1.00338 9.4033C0.820915 9.58577 0.820915 9.8812 1.00338 10.0632L1.93671 10.9965C2.11918 11.179 2.41461 11.179 2.59661 10.9965L6 7.59315L9.40338 10.9965C9.58538 11.179 9.88128 11.179 10.0633 10.9965L10.9966 10.0632C11.1791 9.88073 11.1791 9.5853 10.9966 9.4033L7.59322 5.99992L10.9966 2.59653C11.1791 2.41453 11.1791 2.11864 10.9966 1.93664L10.0633 1.00331C9.88081 0.820838 9.58538 0.820838 9.40338 1.00331L6 4.40669L2.59661 1.00331C2.50538 0.912072 2.38607 0.866586 2.26666 0.866586Z" fill="white"/>
</svg>
