<svg width="68" height="69" viewBox="0 0 68 69" fill="none" xmlns="http://www.w3.org/2000/svg">
<rect y="0.984375" width="68" height="68" rx="20" fill="#0328EE"/>
<g clip-path="url(#clip0_1_906)">
<path d="M31.2599 51.8022C41.7081 51.8022 50.1782 43.279 50.1782 32.7651C50.1782 22.2512 41.7081 13.728 31.2599 13.728C20.8116 13.728 12.3416 22.2512 12.3416 32.7651C12.3416 43.279 20.8116 51.8022 31.2599 51.8022Z" fill="white"/>
<path opacity="0.4" d="M53.4258 57.6295C52.6909 57.6057 51.9921 57.3034 51.4694 56.783L46.9893 51.5463C46.0288 50.6679 45.9502 49.1751 46.8132 48.1995C47.2171 47.7908 47.7663 47.561 48.3392 47.561C48.912 47.561 49.4612 47.7908 49.8652 48.1995L55.4996 52.7078C56.3112 53.5385 56.5616 54.7717 56.139 55.8562C55.7163 56.9407 54.6996 57.6739 53.5432 57.728L53.4258 57.6295Z" fill="white"/>
</g>
<defs>
<clipPath id="clip0_1_906">
<rect width="45" height="45" fill="white" transform="translate(12 12.9844)"/>
</clipPath>
</defs>
</svg>
