<svg width="46" height="46" viewBox="0 0 46 46" fill="none" xmlns="http://www.w3.org/2000/svg">
<rect width="46" height="46" rx="13" fill="#0328EE"/>
<g clip-path="url(#clip0_1_692)">
<path d="M23.2422 7.88916C14.3206 7.88916 7.85596 15.1677 7.85596 23.2447C7.85596 25.8244 8.60838 28.4809 9.92895 30.9071C10.1746 31.3063 10.2053 31.813 10.0364 32.2891L9.00762 35.7287C8.77729 36.5579 9.48364 37.1721 10.2668 36.9264L13.3686 36.0051C14.2131 35.7287 14.8734 36.0819 15.6581 36.5579C17.9 37.8785 20.6932 38.5541 23.2115 38.5541C30.8278 38.5541 38.567 32.6729 38.567 23.1986C38.567 15.0295 31.9641 7.88916 23.2422 7.88916Z" fill="white"/>
<path fill-rule="evenodd" clip-rule="evenodd" d="M16.1022 25.2254C15.0273 25.2254 14.1367 24.3348 14.1367 23.2599C14.1367 22.1697 15.012 21.2944 16.1022 21.2944C17.1924 21.2944 18.0677 22.1697 18.0677 23.2599C18.0677 24.3348 17.1924 25.21 16.1022 25.2254ZM23.1816 25.2256C22.0914 25.2103 21.2161 24.335 21.2161 23.2448C21.2161 22.1699 22.1067 21.2793 23.1816 21.2946C24.2719 21.2946 25.1471 22.1699 25.1471 23.2601C25.1471 24.335 24.2719 25.2256 23.1816 25.2256ZM28.2948 23.2603C28.2948 24.3352 29.17 25.2258 30.2603 25.2258C31.3505 25.2258 32.2258 24.3352 32.2258 23.2603C32.2258 22.1701 31.3505 21.2948 30.2603 21.2948C29.17 21.2948 28.2948 22.1701 28.2948 23.2603Z" fill="#0328EE"/>
</g>
<defs>
<clipPath id="clip0_1_692">
<rect width="32" height="32" fill="white" transform="translate(7 7)"/>
</clipPath>
</defs>
</svg>
