<svg width="68" height="68" viewBox="0 0 68 68" fill="none" xmlns="http://www.w3.org/2000/svg">
<rect width="68" height="68" rx="20" fill="white"/>
<g clip-path="url(#clip0_1_18972)">
<path opacity="0.4" d="M54.11 42.5992C54.11 48.334 49.5057 52.9795 43.7708 53H43.7503H23.3803C17.666 53 13 48.3751 13 42.6403V42.6198C13 42.6198 13.0123 33.5221 13.0288 28.9466C13.0308 28.0874 14.0175 27.6064 14.6896 28.1408C19.5735 32.0154 28.3073 39.0802 28.4162 39.1727C29.8757 40.3423 31.7256 41.0021 33.6167 41.0021C35.5077 41.0021 37.3577 40.3423 38.8171 39.1501C38.926 39.0781 47.4646 32.2251 52.4224 28.2868C53.0966 27.7503 54.0874 28.2313 54.0894 29.0884C54.11 33.629 54.11 42.5992 54.11 42.5992Z" fill="#0328EE"/>
<path d="M53.0331 21.4964C51.253 18.1418 47.7504 16 43.8943 16H23.3804C19.5243 16 16.0217 18.1418 14.2417 21.4964C13.8429 22.2467 14.032 23.1819 14.696 23.7122L29.958 35.9198C31.0269 36.7832 32.3219 37.2128 33.6168 37.2128C33.6251 37.2128 33.6312 37.2128 33.6374 37.2128C33.6436 37.2128 33.6518 37.2128 33.6579 37.2128C34.9529 37.2128 36.2479 36.7832 37.3167 35.9198L52.5788 23.7122C53.2427 23.1819 53.4318 22.2467 53.0331 21.4964Z" fill="#0328EE"/>
</g>
<defs>
<clipPath id="clip0_1_18972">
<rect width="42" height="37" fill="white" transform="translate(13 16)"/>
</clipPath>
</defs>
</svg>
