<svg width="38" height="38" viewBox="0 0 38 38" fill="none" xmlns="http://www.w3.org/2000/svg">
<rect width="38" height="38" rx="19" fill="#0328EE"/>
<g clip-path="url(#clip0_1_19162)">
<path opacity="0.4" d="M29.2061 23.6257C29.2061 26.5634 26.8313 28.9429 23.8734 28.9535H23.8628H13.3567C10.4095 28.9535 8.00293 26.5844 8.00293 23.6467V23.6362C8.00293 23.6362 8.00929 18.976 8.01777 16.6321C8.01883 16.192 8.52771 15.9456 8.87438 16.2194C11.3933 18.2042 15.8979 21.8231 15.9541 21.8705C16.7068 22.4696 17.6609 22.8076 18.6363 22.8076C19.6117 22.8076 20.5658 22.4696 21.3185 21.8589C21.3746 21.822 25.7785 18.3116 28.3356 16.2942C28.6834 16.0193 29.1944 16.2657 29.1954 16.7048C29.2061 19.0307 29.2061 23.6257 29.2061 23.6257Z" fill="white"/>
<path d="M28.6494 12.8155C27.7314 11.0971 25.9248 10 23.936 10H13.3556C11.3668 10 9.56028 11.0971 8.64218 12.8155C8.43651 13.1998 8.53405 13.6789 8.87648 13.9506L16.7481 20.2039C17.2994 20.6462 17.9673 20.8662 18.6352 20.8662C18.6394 20.8662 18.6426 20.8662 18.6458 20.8662C18.649 20.8662 18.6532 20.8662 18.6564 20.8662C19.3243 20.8662 19.9922 20.6462 20.5435 20.2039L28.4151 13.9506C28.7575 13.6789 28.8551 13.1998 28.6494 12.8155Z" fill="white"/>
</g>
<defs>
<clipPath id="clip0_1_19162">
<rect width="22" height="19" fill="white" transform="translate(8.00293 10)"/>
</clipPath>
</defs>
</svg>
